<!DOCTYPE svg PUBLIC "-//W3C//DTD SVG 1.1//EN" "http://www.w3.org/Graphics/SVG/1.1/DTD/svg11.dtd">
<!-- Uploaded to: SVG Repo, www.svgrepo.com, Transformed by: SVG Repo Mixer Tools -->
<svg height="800px" width="800px" version="1.1" id="Capa_1" xmlns="http://www.w3.org/2000/svg" xmlns:xlink="http://www.w3.org/1999/xlink" viewBox="-32.08 -32.08 384.99 384.99" xml:space="preserve" fill="#000000" stroke="#000000">
<g id="SVGRepo_bgCarrier" stroke-width="0"/>
<g id="SVGRepo_tracerCarrier" stroke-linecap="round" stroke-linejoin="round" stroke="#CCCCCC" stroke-width="1.28332"/>
<g id="SVGRepo_iconCarrier"> <g> <g> <path style="fill:#ff8800;" d="M180.494,39.687l-1.333-1.327c-5.009-5.015-11.667-7.772-18.754-7.772 c-7.082,0-13.739,2.758-18.748,7.767l-1.333,1.333L5.551,256.847c-5.466,6.413-7.016,14.196-4.112,21.207 c3.16,7.631,10.704,12.189,20.173,12.189h277.604c9.475,0,17.013-4.558,20.173-12.189c2.904-7.011,1.354-14.8-4.112-21.207 L180.494,39.687z M43.484,257.614L160.413,69.221l116.934,188.393H43.484z"/> <path style="fill:#ff8800;" d="M143.758,122.002v71.388c0,9.197,7.457,16.654,16.654,16.654s16.654-7.457,16.654-16.654v-71.388 c0-9.197-7.457-16.654-16.654-16.654C151.215,105.347,143.758,112.804,143.758,122.002z"/> <circle style="fill:#ff8800;" cx="160.244" cy="234.906" r="16.486"/> </g> </g> </g>
</svg>